# xmcd
#
# Track frame offsets:
# 150
# 19106
# 38534
# 51710
# 70409
# 83432
# 99950
# 119727
# 135180
# 150774
# 169438
# 186147
# 198698
# 213980
# 227285
# 241552
# 252377
# 268821
# 281025
# 294248
# 310708
#
# Disc length: 4326 seconds
#
#
# Revision: 0
# Processed by: cddbd v1.5.2PL0 Copyright (c) Steve Scherf et al.
# Submitted via: FreeRIP 2.951 
#
DISCID=1e10e415
DTITLE=Tião Carreiro and Pardinho - Tião Carreiro and Pardinho As Melhores
DYEAR=1900
DGENRE=Sertanejo
TTITLE0=01] A Volta Que O Mundo Dá
TTITLE1=02] Fandango Mineiro
TTITLE2=03] Bandeirante Fernão
TTITLE3=04] Sabrina
TTITLE4=05] Caboclo De Sorte
TTITLE5=06] Derrota Do Boi Palácio
TTITLE6=07] Gato De Três Cores
TTITLE7=08] Boiada Cuiabana
TTITLE8=09] Velho Peão
TTITLE9=10] Oswaldo Cintra
TTITLE10=11] Ferreirinha
TTITLE11=12] Morena Do Sul De Minas
TTITLE12=01] Travessia Do Araguaia
TTITLE13=02] Cabelos Dor De Prata
TTITLE14=03] Um Pouco De Minha Vida
TTITLE15=04] Clarineta
TTITLE16=05] As Três Cuiabanas
TTITLE17=06] Derrota
TTITLE18=07] Boiadeiro Punho De Aço
TTITLE19=08] Consagração
TTITLE20=09] Ingrata
EXTD=
EXTT0=
EXTT1=
EXTT2=
EXTT3=
EXTT4=
EXTT5=
EXTT6=
EXTT7=
EXTT8=
EXTT9=
EXTT10=
EXTT11=
EXTT12=
EXTT13=
EXTT14=
EXTT15=
EXTT16=
EXTT17=
EXTT18=
EXTT19=
EXTT20=
PLAYORDER=
